<?xml version="1.0" standalone="no"?>
<!DOCTYPE svg PUBLIC "-//W3C//DTD SVG 20010904//EN"
 "http://www.w3.org/TR/2001/REC-SVG-20010904/DTD/svg10.dtd">
<svg version="1.0" xmlns="http://www.w3.org/2000/svg"
 width="3256.000000pt" height="3240.000000pt" viewBox="0 0 3256.000000 3240.000000"
 preserveAspectRatio="xMidYMid meet">

<g transform="translate(0.000000,3240.000000) scale(0.100000,-0.100000)"
fill="#00adef" stroke="none">
<path d="M9795 25338 c-675 -1124 -1978 -3292 -2895 -4818 -3952 -6578 -6158
-10248 -6183 -10288 -15 -23 -25 -47 -22 -52 4 -6 792 -10 2163 -10 l2157 0
59 98 c32 53 331 554 664 1112 333 558 964 1616 1402 2350 438 734 911 1526
1050 1760 139 234 555 931 925 1550 370 619 912 1528 1205 2020 293 492 676
1134 850 1425 174 292 647 1084 1050 1760 403 677 876 1469 1050 1760 174 292
494 827 710 1190 216 363 595 1000 843 1415 247 415 452 758 454 763 2 4 -954
7 -2125 7 l-2130 0 -1227 -2042z"/>
<path d="M17021 27017 c-834 -1346 -1631 -2632 -1886 -3042 -164 -264 -578
-932 -920 -1485 -342 -553 -745 -1203 -895 -1445 -150 -242 -273 -448 -272
-458 0 -10 39 -87 85 -170 100 -180 1124 -1936 1987 -3407 657 -1120 1842
-3151 2009 -3442 l101 -178 -114 -197 c-146 -255 -1128 -1940 -1462 -2510
-435 -742 -546 -925 -554 -917 -19 22 -414 662 -1045 1694 -213 349 -594 970
-845 1380 -251 410 -761 1242 -1132 1850 -879 1436 -1173 1913 -1185 1917 -11
4 -251 -356 -1150 -1722 -297 -451 -637 -966 -754 -1145 -118 -179 -218 -330
-222 -336 -4 -6 113 -213 260 -460 146 -247 600 -1014 1008 -1704 408 -690
958 -1619 1222 -2065 264 -445 736 -1242 1048 -1770 312 -528 679 -1147 815
-1375 136 -228 437 -737 670 -1130 997 -1684 1242 -2095 1249 -2103 5 -5 26
22 48 60 423 728 803 1388 1258 2178 307 534 784 1362 1060 1840 276 479 746
1295 1045 1815 298 520 685 1193 860 1495 576 999 1371 2384 1780 3100 122
215 231 404 241 421 l18 30 -46 80 c-167 287 -1392 2354 -2113 3564 -306 514
-798 1340 -1092 1835 -295 495 -583 980 -642 1079 -58 98 -106 184 -106 190 0
7 4 16 9 22 5 5 264 446 576 979 1010 1727 1519 2590 1540 2613 9 10 18 2 45
-40 98 -159 3478 -5796 5615 -9368 587 -982 1436 -2401 1887 -3153 l819 -1368
1974 3 c1085 2 1976 6 1980 10 4 3 -139 251 -318 550 -178 298 -593 995 -922
1548 -329 553 -797 1338 -1040 1745 -243 407 -619 1037 -835 1400 -503 844
-876 1472 -1410 2365 -235 393 -654 1095 -930 1560 -277 465 -659 1106 -850
1425 -191 319 -689 1154 -1107 1855 -418 701 -1003 1682 -1300 2180 -297 498
-763 1279 -1035 1735 l-494 830 -2155 2 -2154 2 -224 -362z"/>
</g>
</svg>
