<?xml version="1.0" standalone="no"?>
<!DOCTYPE svg PUBLIC "-//W3C//DTD SVG 20010904//EN"
 "http://www.w3.org/TR/2001/REC-SVG-20010904/DTD/svg10.dtd">
<svg version="1.0" xmlns="http://www.w3.org/2000/svg"
 width="2000.000000pt" height="2000.000000pt" viewBox="0 0 1000.000000 1000.000000"
 preserveAspectRatio="xMidYMid meet">

<g transform="translate(0.000000,1000.000000) scale(0.100000,-0.100000)"
fill="#b3b3b3" stroke="none">
<path d="M4715 9054 c-27 -3 -124 -14 -215 -25 -1737 -213 -3152 -1535 -3489
-3259 -84 -430 -92 -956 -21 -1403 69 -427 184 -787 377 -1180 312 -634 781
-1164 1394 -1575 523 -352 1079 -557 1757 -649 186 -25 751 -25 947 0 385 50
676 123 1015 254 680 263 1316 746 1762 1338 432 573 697 1223 789 1935 30
232 37 653 15 880 -34 363 -121 741 -246 1070 -64 170 -246 540 -338 687 -322
515 -748 951 -1247 1277 -514 336 -1094 547 -1737 632 -118 16 -639 28 -763
18z m235 -454 c67 -24 221 -98 254 -122 17 -13 13 -16 -48 -36 -71 -23 -114
-60 -147 -125 -25 -48 -91 -114 -153 -152 -100 -61 -161 -94 -178 -95 -17 0
-83 -50 -157 -119 l-44 -41 -106 0 c-58 0 -111 -4 -118 -8 -7 -4 -13 -37 -15
-77 l-3 -70 -126 4 c-141 4 -187 -6 -219 -46 -11 -14 -20 -41 -20 -59 0 -43
22 -55 166 -89 60 -14 123 -30 140 -35 47 -15 144 -12 199 7 106 35 103 32 97
79 -9 85 3 113 89 197 92 90 98 91 229 52 99 -30 122 -31 143 -7 9 10 45 31
79 48 35 16 65 32 68 35 16 20 229 100 301 113 52 9 149 -18 174 -48 11 -14
37 -52 59 -85 45 -72 45 -84 -11 -224 -33 -81 -35 -94 -29 -154 l7 -66 -81
-79 -81 -79 -98 3 c-135 4 -138 1 -143 -140 -3 -99 -6 -111 -36 -163 -18 -31
-40 -63 -49 -70 -11 -10 -65 -16 -189 -20 -150 -5 -178 -9 -218 -29 -25 -12
-46 -27 -46 -34 0 -19 -80 -90 -153 -136 -41 -26 -74 -55 -84 -74 -9 -17 -35
-53 -57 -81 -23 -27 -75 -105 -115 -173 -58 -97 -89 -135 -146 -186 -75 -68
-89 -92 -149 -252 -14 -38 -42 -94 -61 -124 -37 -57 -45 -111 -26 -176 l8 -30
-69 17 c-110 27 -131 47 -143 134 -10 67 -29 110 -68 155 -17 20 -40 51 -49
68 -9 17 -32 41 -50 52 -29 19 -45 21 -139 17 -95 -3 -110 -6 -160 -34 -30
-17 -79 -39 -109 -48 -75 -24 -121 -73 -143 -153 -25 -91 -22 -145 14 -237 34
-89 121 -277 130 -285 3 -3 15 -21 25 -40 23 -42 196 -210 217 -210 8 0 31
-19 52 -42 20 -24 61 -68 90 -98 40 -42 54 -65 60 -98 4 -24 5 -45 3 -47 -2
-2 -21 5 -43 15 -22 11 -50 19 -63 20 -12 0 -46 12 -75 27 -29 15 -66 32 -83
38 -17 7 -48 25 -70 42 -21 16 -67 38 -101 48 -35 10 -63 22 -63 26 0 5 -18
18 -40 29 -22 11 -46 33 -55 49 -8 16 -24 32 -35 36 -11 3 -20 12 -20 19 0 23
-65 73 -125 96 -133 52 -173 77 -221 143 -25 34 -63 100 -86 147 -22 47 -44
93 -49 102 -5 10 -9 37 -9 61 0 83 -21 161 -68 247 -55 102 -74 127 -152 193
-63 53 -111 120 -135 190 -17 48 -20 168 -5 195 5 9 23 51 41 92 59 139 132
280 164 314 13 14 38 65 55 113 18 48 38 95 45 103 6 8 22 42 35 75 12 33 26
69 31 80 4 11 9 65 11 120 3 62 9 108 18 122 11 17 11 31 2 75 -9 37 -9 64 -2
89 11 38 96 134 159 179 19 14 46 35 60 46 31 26 89 55 196 101 44 19 98 48
119 65 61 49 219 75 290 48 22 -8 58 -52 69 -84 2 -5 21 -3 42 4 50 15 185 81
203 97 21 20 58 26 99 16 l38 -9 -3 -48 c-5 -58 4 -66 75 -66 48 0 55 3 99 46
85 81 136 92 149 34 8 -36 67 -90 99 -90 21 0 24 6 28 51 6 61 24 81 78 88 40
6 43 8 69 71 53 123 112 192 181 210 54 14 120 51 169 95 20 18 54 45 76 60
36 24 46 27 105 22 36 -2 94 -15 130 -27z m2816 -842 c126 -134 284 -322 284
-340 0 -23 -22 -38 -55 -38 -44 0 -135 -28 -136 -43 -3 -29 5 -54 42 -130 35
-71 40 -89 35 -129 -9 -86 -56 -148 -111 -148 -41 0 -97 19 -112 37 -6 9 -15
39 -18 68 -6 42 -12 55 -30 63 -21 10 -85 91 -85 107 0 4 -15 33 -34 64 -44
73 -49 99 -32 156 18 57 14 69 -32 96 -73 43 -125 134 -120 207 3 42 6 47 29
50 32 4 129 -38 156 -67 l20 -22 27 45 c14 24 26 47 26 49 0 15 32 77 39 77 5
0 53 -46 107 -102z m812 -1500 c26 -6 57 -22 70 -35 66 -71 131 -284 176 -577
38 -250 49 -382 50 -631 l1 -229 -55 -13 c-55 -12 -119 -8 -153 9 -11 5 -30
35 -44 66 -46 102 -62 110 -125 61 -36 -29 -43 -31 -94 -25 -62 7 -119 28
-149 55 -11 10 -42 26 -70 36 -27 10 -64 32 -81 50 -32 31 -57 95 -48 120 3 7
0 31 -6 54 -10 37 -8 46 18 98 45 89 58 161 42 228 -15 62 -5 94 38 124 60 41
83 67 89 103 5 32 0 44 -46 104 -71 95 -68 146 11 220 34 32 146 94 171 94 7
0 31 15 53 33 49 41 86 67 97 67 4 0 29 -5 55 -12z m-4050 -1036 c2 -7 -1 -24
-8 -37 -8 -14 -10 -37 -6 -56 5 -27 0 -39 -27 -73 -67 -82 -68 -78 14 -164
120 -126 239 -221 310 -247 10 -4 35 8 65 31 85 66 156 78 269 48 91 -23 138
-55 173 -117 25 -45 39 -58 84 -77 55 -24 71 -26 202 -14 50 4 86 2 100 -5 11
-6 33 -15 47 -20 14 -5 43 -35 64 -68 22 -32 47 -67 56 -78 8 -11 22 -36 29
-55 36 -95 35 -94 163 -158 67 -34 165 -75 217 -92 52 -16 120 -40 150 -52 65
-26 196 -128 206 -161 4 -12 22 -39 40 -59 18 -21 36 -49 40 -63 11 -44 -4
-114 -41 -189 -25 -51 -35 -86 -35 -119 0 -41 -7 -56 -62 -133 -120 -164 -140
-202 -148 -279 -14 -124 -34 -155 -101 -155 -25 0 -42 -10 -75 -45 -24 -25
-71 -58 -106 -74 -82 -38 -93 -49 -161 -153 -76 -114 -230 -257 -305 -282 -59
-20 -85 -55 -96 -128 -4 -25 -16 -55 -27 -67 -19 -21 -28 -22 -108 -18 -47 2
-106 9 -131 15 -72 17 -164 2 -200 -33 -57 -54 -82 -124 -90 -243 -10 -164
-54 -232 -152 -232 l-49 0 -23 53 c-13 28 -29 79 -36 112 -8 37 -25 75 -43 99
-17 22 -43 63 -59 90 -61 112 -58 100 -47 276 5 88 14 182 19 208 7 40 5 52
-13 81 -18 30 -22 61 -33 240 -8 138 -17 220 -28 250 -9 24 -16 52 -16 62 0
26 -80 97 -142 126 -29 13 -55 28 -58 33 -3 5 -32 21 -64 35 -33 14 -77 41
-100 59 -23 18 -69 50 -104 70 -83 50 -111 89 -138 194 -52 207 -88 310 -149
427 -35 66 -66 135 -70 152 -9 42 10 97 39 116 16 11 25 29 29 60 11 79 47
157 100 215 l50 55 -9 86 c-15 157 -11 183 39 264 25 39 56 83 69 96 26 26
219 147 252 157 11 4 32 15 46 24 34 24 55 28 124 27 38 -1 60 -6 64 -15z"/>
</g>
</svg>
